<?xml version="1.0" encoding="UTF-8"?><svg xmlns="http://www.w3.org/2000/svg" viewBox="0 0 72 72"><defs><style>.cls-1{fill:none;}.cls-2{fill:#88898b;}.cls-3{fill:#fff;}.cls-4{fill:#808285;}.cls-5{fill:#939598;}</style></defs><g id="Gold_Logo"><circle class="cls-5" cx="35.98" cy="35.98" r="35.98" transform="translate(-9.63 58.54) rotate(-71.32)"/><path class="cls-4" d="M36,9.55c-14.59,0-26.45,11.87-26.45,26.45s11.87,26.45,26.45,26.45,26.45-11.87,26.45-26.45-11.87-26.45-26.45-26.45ZM55.7,43.76c.62-.15,1.55-.62,2.29.24,1.95,2.27-3.13,6.23-6.5,6.96-3.37.73-6.39,2.07-7.66,2.69-1.26.59-6.64,4.5-6.99,6.03-.1.47-.32.77-.83.77s-.75-.34-.85-.8c-.38-1.56-5.73-5.4-6.99-5.99-1.27-.61-4.29-1.96-7.67-2.69-3.37-.73-8.45-4.69-6.5-6.96.74-.86,1.68-.39,2.29-.24,1.53.38.92-.9-.2-1.46-.43-.21-5.66-1.9-4.46-5.16.84-2.29,2.47.42,3.61-.46.36-.28.58-.51-1.01-2.12-1.59-1.62-2.07-2.77-2.24-3.76-.15-1-.15-1.75.5-2.14.66-.38,1.53.63,1.78-.42.16-.56-.05-.88-.05-1.89,0-1.1,1.07-3.85,3.59-2.92,1.63.59.77,3.53,1.18,4.08.43.57.8-1.17,1.71-1.44,1.05-.31,1.79.71,1.78,1.65-.02.94-.6,2.71-.79,3.38-.11.54-.39,2.01-.22,2.44.26.65.5.44,1.09-.39.53-.73.26-.43,1.19-1.6,1.16-1.5,1.87.58,1.95,1.96.09,1.39-.92,6.23-.91,6.87.07,2.9,1.62-.43,1.67-.5,1.01-1.61,2.95-.86,2.34.87-1.11,3.16-2.1,5.88-1.05,8.58.14.36.33.99.59,1.62-8.55-8.32-10.9-19.76-10.91-19.78-.03-.12-.2-.31-.31-.28-.1.03-.18.26-.15.38,0,.02,2.79,17.14,17.69,25.88.32.18.38,0,.44-.3-.07-2.72-.19-4.58-1.15-5.17-8.02-4.98-5.41-7.28-3.75-7.61,1.67-.34,2.62-3.19.32-4.42-4.04-2.38-6.11-10.86-1.1-9,.46.04,3.76,1.83.86-3.37-2.75-5.2-1.91-9.83.95-7.81.75.52,2.87,2.87,2.44-.52-.76-5.15.46-6.99,1.91-7.32,0,0,.32-.05.41-.05h0s.13,0,.13,0c.12.01.27.04.27.04,1.44.34,2.67,2.17,1.91,7.32-.42,3.4,1.7,1.05,2.45.52,2.86-2.02,3.7,2.61.95,7.81-2.91,5.2.39,3.41.85,3.37,5.01-1.86,2.95,6.63-1.1,9-2.29,1.24-1.34,4.08.32,4.42,1.66.34,4.27,2.63-3.75,7.61-.96.6-1.08,2.44-1.14,5.15.07.31.1.51.43.32,14.9-8.74,17.69-25.86,17.7-25.88.03-.12-.02-.35-.12-.38-.1-.04-.31.08-.34.2,0,.01-2.35,11.54-10.9,19.86.26-.63.45-1.26.58-1.62,1.05-2.7.06-5.42-1.05-8.58-.61-1.73,1.34-2.48,2.35-.87.05.08,1.59,3.4,1.66.5.02-.64-.99-5.48-.9-6.87.08-1.39.79-3.47,1.95-1.96.93,1.17.65.87,1.18,1.6.6.82.83,1.04,1.1.39.18-.43-.1-1.9-.21-2.44-.19-.67-.78-2.44-.79-3.38,0-.94.72-1.96,1.78-1.65.91.27,1.28,2.01,1.71,1.44.42-.55-.44-3.48,1.18-4.08,2.51-.93,3.59,1.82,3.59,2.92,0,1.01-.21,1.33-.05,1.89.25,1.05,1.12.04,1.78.42.65.39.65,1.14.5,2.14-.16,1-.64,2.14-2.24,3.76-1.58,1.61-1.36,1.84-1,2.12,1.13.89,2.76-1.83,3.6.46,1.21,3.26-4.03,4.95-4.46,5.16-1.12.56-1.74,1.84-.21,1.46Z"/><polygon class="cls-3" points="20.15 26.77 20.15 26.75 20.13 26.77 17.4 26.77 17.38 26.75 17.38 26.77 17.38 42.83 17.29 42.9 17.38 42.9 24.51 42.9 24.51 40.49 20.15 40.49 20.15 26.77"/><polygon class="cls-3" points="29.38 35.75 32.96 35.75 32.96 33.36 32.96 33.34 29.38 33.34 29.38 29.18 34.03 29.18 34.03 26.79 34.03 26.77 26.61 26.77 26.61 42.9 34.34 42.9 34.34 40.51 34.34 40.49 29.38 40.49 29.38 35.75"/><polygon class="cls-3" points="39.39 35.75 42.96 35.75 42.96 33.36 42.96 33.34 39.39 33.34 39.39 29.18 44.03 29.18 44.03 26.79 44.03 26.77 36.62 26.77 36.62 42.9 44.34 42.9 44.34 40.51 44.34 40.49 39.39 40.49 39.39 35.75"/><path class="cls-3" d="M53.8,27.69c-.72-.62-1.72-.92-2.97-.92h-4.11v16.13h4.11c1.27,0,2.27-.31,3-.94.91-.79,1.38-2.09,1.38-3.93v-6.39c0-1.85-.48-3.16-1.4-3.95ZM53.61,30.76s0,0,0,0c0,0,0,0,0,0ZM52.43,38.37c0,.81-.12,1.36-.41,1.71-.31.38-.81.54-1.58.54h-.96v-11.57h.96c1.47,0,1.99.56,1.99,2.26v7.06Z"/><path class="cls-4" d="M36,0C16.15,0,0,16.15,0,36c0,19.85,16.15,36,36,36,19.85,0,36-16.15,36-36C72,16.15,55.85,0,36,0ZM55.17,55.18c-5.12,5.12-11.94,7.94-19.17,7.94-7.24,0-14.05-2.82-19.18-7.94-5.12-5.12-7.94-11.94-7.94-19.17,0-7.24,2.82-14.05,7.94-19.18,5.12-5.12,11.93-7.94,19.18-7.94,7.24,0,14.05,2.82,19.17,7.94,5.12,5.12,7.94,11.93,7.94,19.18s-2.82,14.05-7.94,19.17Z"/><path class="cls-3" d="M11.6,54.55l-2.09,1.48-.3-.42,1.68-1.19-.74-1.05.41-.29,1.04,1.47Z"/><path class="cls-3" d="M9.84,51.93l-2.23,1.25-.87-1.55.44-.24.62,1.1.38-.22-.36-.64.43-.24.36.64.54-.3-.65-1.15.44-.24.9,1.6Z"/><path class="cls-3" d="M7.62,47.41l-.45.4.36.86.6-.03.21.5-2.74.08-.19-.46,1.99-1.88.22.52ZM6.43,48.49c-.12.11-.24.21-.32.27.1-.01.26-.02.42-.04l.49-.03-.23-.54-.36.33Z"/><path class="cls-3" d="M6.76,44.83l.21.74-2.46.7-.22-.77c-.2-.7-.02-1.32.88-1.58.87-.25,1.41.28,1.59.91ZM4.77,45.38l.07.26,1.51-.43-.07-.24c-.15-.52-.52-.67-.97-.54-.5.14-.69.43-.54.95Z"/><path class="cls-3" d="M6.1,42.16l-2.53.41-.29-1.75.49-.08.2,1.25.44-.07-.12-.72.49-.08.12.72.61-.1-.21-1.3.49-.08.3,1.81Z"/><path class="cls-3" d="M5.57,37.42l-.9.5.03.51.92-.05.03.51-2.55.13-.06-1.19c-.02-.48.22-.89.77-.92.38-.02.63.13.78.45l.97-.54.03.59ZM3.53,37.82l.03.67.66-.03-.04-.67c-.01-.24-.13-.36-.35-.35-.23.01-.32.16-.31.38Z"/><path class="cls-3" d="M5.65,34.51c-.03.43-.23.79-.52.96l-.31-.39c.22-.17.32-.39.33-.64.02-.3-.06-.45-.25-.46-.16,0-.24.07-.38.55-.14.46-.31.78-.81.75-.46-.03-.72-.45-.69-.96.02-.4.19-.68.46-.91l.34.39c-.18.16-.28.33-.3.57-.02.27.09.37.21.38.16.01.22-.1.34-.5.12-.4.29-.84.84-.81.49.03.8.36.75,1.05Z"/><path class="cls-3" d="M6.11,30.52l-1.06-.19-.18,1.03,1.06.19-.09.5-2.52-.44.09-.5.97.17.18-1.03-.97-.17.09-.5,2.52.44-.09.5Z"/><path class="cls-3" d="M6.59,28.47l-2.47-.68.14-.49,2.47.68-.14.49Z"/><path class="cls-3" d="M6.73,25.13l-.2.53.85.32-.18.48-2.39-.91.4-1.05c.17-.45.56-.73,1.07-.54.55.21.65.67.46,1.16ZM5.66,24.7l-.21.55.62.23.21-.56c.08-.22.03-.38-.18-.46-.21-.08-.36.02-.44.23Z"/><path class="cls-3" d="M9.38,21.61l-2.22-1.27.25-.45,2.22,1.27-.25.45Z"/><path class="cls-3" d="M11.38,18.48l-1.68-.03c-.11,0-.27,0-.34-.02.08.05.35.23.46.32l.92.65-.29.41-2.1-1.47.28-.4,1.63.04c.11,0,.27,0,.34.02-.08-.05-.35-.23-.46-.32l-.89-.62.29-.41,2.1,1.47-.26.37Z"/><path class="cls-3" d="M13.91,15.44l-1.79-1.82,1.27-1.25.35.36-.9.89.31.32.52-.52.35.35-.52.51.43.44.94-.93.35.36-1.3,1.29Z"/><path class="cls-3" d="M17.57,12.17l-1.6-.51c-.11-.04-.25-.08-.32-.12.06.07.26.32.35.43l.7.88-.4.31-1.59-2.01.38-.3,1.55.5c.11.04.25.08.32.12-.06-.07-.26-.32-.35-.43l-.67-.85.4-.31,1.59,2.01-.36.28Z"/><path class="cls-3" d="M19.23,10.99l-1.35-2.18,1.51-.93.26.42-1.08.67.23.38.62-.39.26.42-.63.38.33.53,1.12-.69.26.43-1.56.96Z"/><path class="cls-3" d="M23.43,8.7l-.81-.64-.47.22.39.83-.46.22-1.09-2.32,1.08-.51c.44-.21.91-.13,1.14.36.16.35.12.64-.12.89l.87.69-.53.25ZM22.27,6.96l-.61.29.28.6.61-.29c.22-.1.29-.25.19-.46-.1-.21-.27-.24-.47-.14Z"/><path class="cls-3" d="M26.27,7.63c-.63.21-1.22-.13-1.48-.89-.25-.74.02-1.4.66-1.61.5-.17.84-.02,1.12.3l-.4.34c-.15-.15-.31-.25-.57-.16-.36.12-.46.51-.31.96.15.45.47.71.83.58.33-.11.39-.31.35-.53l-.38.13-.15-.45.87-.29.11.32c.21.62-.08,1.12-.64,1.3Z"/><path class="cls-3" d="M29.53,5.66l.21.99-.5.11-.21-.98-1.27-1.32.58-.12.48.52c.12.13.31.35.38.43.03-.1.11-.37.17-.55l.23-.67.57-.12-.62,1.71Z"/><path class="cls-3" d="M35.52,6.03l-.2-.2c-.2.17-.44.26-.74.27-.52.02-.85-.19-.86-.65-.01-.36.18-.58.5-.75l-.07-.07c-.14-.14-.23-.31-.24-.51-.01-.42.31-.64.74-.66.32,0,.52.08.77.24l-.23.38c-.17-.12-.36-.17-.54-.17-.15,0-.24.07-.24.18,0,.11.06.18.14.27l.73.78c.05-.12.11-.26.17-.43l.42.12c-.07.25-.16.47-.27.65l.5.53-.59.02ZM34.5,4.99c-.2.11-.27.25-.27.4,0,.16.14.27.4.26.16,0,.29-.05.39-.13l-.52-.53Z"/><path class="cls-3" d="M39.3,6.21l.35-2.53,1.76.25-.07.49-1.25-.17-.06.44.73.1-.07.49-.73-.1-.08.61,1.3.18-.07.5-1.81-.25Z"/><path class="cls-3" d="M44.12,7.16l-.56-1.59c-.04-.11-.09-.25-.1-.32-.02.09-.1.4-.13.54l-.29,1.09-.49-.13.64-2.48.47.12.54,1.54c.04.11.09.25.1.32.02-.09.1-.4.13-.54l.27-1.05.49.13-.64,2.48-.44-.12Z"/><path class="cls-3" d="M47.19,8.21l-.46-.18.09-2.71.53.21-.09,1.55c0,.15-.03.34-.04.44.05-.08.16-.23.26-.35l.98-1.21.52.2-1.78,2.05Z"/><path class="cls-3" d="M49.28,9.14l1.15-2.28.46.23-1.15,2.29-.46-.23Z"/><path class="cls-3" d="M52.39,10.91l.1-1.02-.44-.27-.49.78-.44-.27,1.36-2.17,1.01.63c.41.26.61.69.32,1.15-.2.33-.47.44-.81.38l-.11,1.1-.5-.31ZM53.23,9l-.57-.36-.35.56.57.35c.2.13.37.1.49-.09.12-.19.05-.35-.14-.47Z"/><path class="cls-3" d="M54.81,12.72c-.54-.44-.53-1.12-.04-1.73.49-.61,1.15-.77,1.69-.33.54.44.53,1.12.04,1.72-.49.61-1.15.77-1.69.34ZM56.15,11.05c-.32-.26-.68-.09-.96.27-.29.36-.37.74-.05,1,.32.26.68.09.96-.27.29-.36.37-.74.05-1Z"/><path class="cls-3" d="M57.93,15.52l.34-1.65c.03-.11.06-.26.08-.33-.07.07-.29.3-.39.4l-.8.79-.35-.36,1.82-1.79.34.35-.33,1.59c-.02.11-.05.26-.08.33.07-.07.29-.3.39-.4l.77-.76.35.36-1.82,1.79-.32-.33Z"/><path class="cls-3" d="M60.45,18.55l.75-.57c.11-.08.37-.28.45-.34-.1.03-.29.08-.45.12l-1.22.28.59-1.1c.08-.14.17-.31.23-.4-.08.06-.33.26-.44.35l-.75.57-.3-.4,2.03-1.55.3.39-.6,1.13c-.07.14-.18.32-.23.4.1-.03.29-.09.44-.12l1.23-.29.31.4-2.03,1.55-.31-.41Z"/><path class="cls-3" d="M61.63,20.3l2.21-1.3.9,1.53-.43.25-.64-1.09-.38.22.37.63-.43.25-.37-.63-.53.31.67,1.14-.43.25-.93-1.58Z"/><path class="cls-3" d="M63.88,24.66l.9-1.42c.06-.09.15-.22.19-.28-.09.04-.38.17-.51.23l-1.03.46-.21-.46,2.34-1.03.2.45-.87,1.38c-.06.09-.15.22-.19.28.09-.04.38-.18.51-.23l.99-.44.2.46-2.34,1.03-.19-.42Z"/><path class="cls-3" d="M66.88,26.96l-1.96.61-.15-.49,1.96-.61-.22-.7.48-.15.59,1.89-.48.15-.22-.7Z"/><path class="cls-3" d="M65.75,31.01l.52-.31-.18-.92-.6-.09-.11-.54,2.7.46.1.49-2.32,1.46-.11-.55ZM67.13,30.18c.14-.08.28-.16.37-.2-.1,0-.26-.03-.41-.05l-.49-.07.11.57.42-.25Z"/><path class="cls-3" d="M66.03,32.94l2.55-.22.04.51-2.05.17.11,1.28-.5.04-.15-1.79Z"/><path class="cls-3" d="M66.12,38.79l.07-.76,2.55.21-.07.8c-.06.73-.45,1.24-1.38,1.16-.9-.08-1.22-.76-1.17-1.41ZM68.17,38.98l.02-.27-1.56-.13-.02.25c-.04.54.25.81.71.85.52.04.8-.16.84-.7Z"/><path class="cls-3" d="M65.79,41.53l2.51.5-.35,1.74-.49-.1.25-1.24-.43-.09-.14.72-.49-.1.14-.72-.61-.12-.26,1.3-.49-.1.36-1.79Z"/><path class="cls-3" d="M64.75,45.56c.13-.41.41-.71.74-.81l.2.45c-.25.11-.4.3-.48.53-.09.29-.05.45.13.51.16.05.25-.01.5-.44.25-.42.49-.69.97-.53.44.14.59.62.44,1.1-.12.38-.35.61-.67.77l-.23-.46c.21-.11.36-.25.43-.47.09-.26,0-.38-.11-.42-.15-.05-.23.04-.45.4-.21.36-.48.74-1.01.58-.46-.15-.68-.54-.47-1.21Z"/><path class="cls-3" d="M63.95,47.89l2.36.99-.2.47-2.36-.99.2-.47Z"/><path class="cls-3" d="M62.59,50.66c.32-.59.98-.74,1.69-.36.69.37.94,1.04.63,1.62-.25.46-.59.59-1.02.55l.05-.52c.21,0,.39-.03.52-.27.18-.34-.01-.69-.43-.91-.41-.22-.83-.19-1.01.15-.17.31-.08.49.11.62l.19-.36.42.23-.43.81-.3-.16c-.58-.31-.7-.87-.42-1.39Z"/><path class="cls-3" d="M60.44,54.18l1.68.03c.12,0,.27,0,.34.02-.08-.05-.35-.23-.46-.31l-.92-.65.29-.41,2.1,1.47-.28.4-1.63-.03c-.11,0-.27,0-.34-.02.08.05.35.23.46.31l.89.62-.29.41-2.1-1.47.26-.38Z"/><rect class="cls-1" x="19" y="46.61" width="35.14" height="6.08"/><rect class="cls-1" x="19" y="46.61" width="35.14" height="6.08"/><rect class="cls-1" x="19" y="46.54" width="35.14" height="6.08"/><path class="cls-3" d="M29.76,50.11c-.82.11-1.46-.44-1.59-1.43-.13-.95.35-1.69,1.17-1.81.64-.09,1.02.16,1.29.62l-.56.33c-.15-.22-.32-.37-.66-.32-.47.06-.68.51-.6,1.09.08.58.41.96.88.9.43-.06.55-.28.55-.56l-.5.07-.08-.59,1.12-.15.06.41c.11.8-.36,1.33-1.08,1.43Z"/><path class="cls-3" d="M34.16,49.71c-.86.04-1.4-.61-1.45-1.57-.04-.96.44-1.65,1.3-1.69.86-.04,1.4.6,1.45,1.56.04.96-.44,1.65-1.3,1.69ZM34.04,47.08c-.51.02-.7.47-.68,1.03.03.56.26.99.77.97.51-.02.7-.47.68-1.04-.03-.56-.26-.99-.77-.97Z"/><path class="cls-3" d="M37.46,49.62l.13-3.16.63.03-.11,2.54,1.58.07-.03.62-2.22-.09Z"/><path class="cls-3" d="M42.47,49.99l-.94-.12.41-3.14.98.13c.9.12,1.5.62,1.36,1.77-.14,1.1-1,1.46-1.81,1.36ZM42.82,47.47l-.33-.04-.25,1.92.31.04c.66.09,1.01-.26,1.08-.83.08-.64-.15-.99-.81-1.08Z"/><path class="cls-3" d="M36,63.16c-14.98,0-27.16-12.19-27.16-27.16s12.18-27.17,27.16-27.17,27.16,12.19,27.16,27.17-12.19,27.16-27.16,27.16ZM36,9.56c-14.58,0-26.44,11.86-26.44,26.44s11.86,26.44,26.44,26.44,26.44-11.86,26.44-26.44-11.86-26.44-26.44-26.44Z"/><path class="cls-2" d="M64.36,62.41c.81,0,1.5.63,1.5,1.48s-.69,1.49-1.5,1.49-1.51-.63-1.51-1.49.69-1.48,1.51-1.48ZM64.36,62.65c-.69,0-1.22.53-1.22,1.24s.53,1.25,1.22,1.25,1.21-.52,1.21-1.25-.53-1.24-1.21-1.24ZM64.05,64.75h-.26v-1.71h.66c.41,0,.61.15.61.49,0,.31-.19.44-.45.47l.49.75h-.29l-.46-.74h-.3v.74ZM64.05,63.79h.31c.32,0,.42-.09.42-.28,0-.16-.08-.26-.38-.26h-.36v.54Z"/></g><g id="Year"><path class="cls-3" d="M32.2,68.43l-2.17-.33c.16-.95.8-1.27,1.52-1.46.25-.07.34-.17.36-.29.02-.14-.08-.3-.41-.35-.33-.05-.61.06-.84.21l-.29-.47c.34-.25.75-.36,1.19-.29.66.1.99.42.91.95-.07.45-.34.6-.84.75-.52.15-.74.31-.83.51l1.47.22-.08.53Z"/><path class="cls-3" d="M35.67,67.23c-.04.85-.48,1.43-1.25,1.4-.76-.03-1.14-.64-1.11-1.5s.48-1.42,1.24-1.39c.76.04,1.15.64,1.11,1.49ZM35.1,67.21c.02-.5-.14-.9-.57-.92-.43-.02-.62.36-.64.86s.14.91.57.93.63-.37.65-.87Z"/><path class="cls-3" d="M38.83,68.52l-2.19.12c-.04-.96.53-1.41,1.2-1.74.23-.12.3-.23.3-.35,0-.14-.14-.28-.48-.26-.33.02-.59.18-.78.38l-.38-.4c.28-.32.67-.5,1.11-.52.66-.04,1.05.21,1.08.75.03.45-.21.66-.67.91-.48.25-.67.45-.71.67l1.49-.08.03.54Z"/><path class="cls-3" d="M41.95,67.18c.09.62-.37,1.03-1.02,1.12-.62.09-1.15-.18-1.27-.95-.11-.73.17-1.8,1.6-2.02l.08.54c-.64.1-1.01.38-1.11.83.16-.15.33-.23.61-.27.55-.08,1.02.13,1.11.75ZM41.39,67.28c-.04-.28-.27-.38-.62-.33-.38.06-.56.21-.51.5.04.26.25.38.61.33.37-.06.56-.25.52-.5Z"/></g></svg>